<svg width="96" height="52" viewBox="0 0 96 52" fill="none" xmlns="http://www.w3.org/2000/svg">
<path d="M0 0.618408H81.9268L95.035 16.188V51.7756H0V0.618408Z" fill="white"/>
<path d="M17.908 40.504C16.18 40.504 14.608 40.144 13.192 39.424C11.8 38.704 10.696 37.66 9.88 36.292C9.064 34.924 8.656 33.268 8.656 31.324V30.82C8.656 28.876 9.064 27.22 9.88 25.852C10.696 24.484 11.8 23.44 13.192 22.72C14.608 22 16.18 21.64 17.908 21.64C19.612 21.64 21.076 21.94 22.3 22.54C23.524 23.14 24.508 23.968 25.252 25.024C26.02 26.056 26.524 27.232 26.764 28.552L22.372 29.488C22.276 28.768 22.06 28.12 21.724 27.544C21.388 26.968 20.908 26.512 20.284 26.176C19.684 25.84 18.928 25.672 18.016 25.672C17.104 25.672 16.276 25.876 15.532 26.284C14.812 26.668 14.236 27.256 13.804 28.048C13.396 28.816 13.192 29.764 13.192 30.892V31.252C13.192 32.38 13.396 33.34 13.804 34.132C14.236 34.9 14.812 35.488 15.532 35.896C16.276 36.28 17.104 36.472 18.016 36.472C19.384 36.472 20.416 36.124 21.112 35.428C21.832 34.708 22.288 33.772 22.48 32.62L26.872 33.664C26.56 34.936 26.02 36.1 25.252 37.156C24.508 38.188 23.524 39.004 22.3 39.604C21.076 40.204 19.612 40.504 17.908 40.504ZM36.8561 40C35.6801 40 34.7201 39.64 33.9761 38.92C33.2561 38.176 32.8961 37.192 32.8961 35.968V25.888H28.4321V22.144H32.8961V16.6H37.4321V22.144H42.3281V25.888H37.4321V35.176C37.4321 35.896 37.7681 36.256 38.4401 36.256H41.8961V40H36.8561ZM53.9373 40.504C52.1613 40.504 50.5893 40.132 49.2213 39.388C47.8773 38.62 46.8213 37.552 46.0533 36.184C45.3093 34.792 44.9373 33.16 44.9373 31.288V30.856C44.9373 28.984 45.3093 27.364 46.0533 25.996C46.7973 24.604 47.8413 23.536 49.1853 22.792C50.5293 22.024 52.0893 21.64 53.8652 21.64C55.6173 21.64 57.1413 22.036 58.4373 22.828C59.7333 23.596 60.7413 24.676 61.4612 26.068C62.1813 27.436 62.5413 29.032 62.5413 30.856V32.404H49.5453C49.5933 33.628 50.0493 34.624 50.9133 35.392C51.7773 36.16 52.8333 36.544 54.0813 36.544C55.3533 36.544 56.2893 36.268 56.8893 35.716C57.4893 35.164 57.9453 34.552 58.2573 33.88L61.9653 35.824C61.6293 36.448 61.1373 37.132 60.4893 37.876C59.8653 38.596 59.0253 39.22 57.9693 39.748C56.9133 40.252 55.5693 40.504 53.9373 40.504ZM49.5813 29.02H57.9333C57.8373 27.988 57.4173 27.16 56.6733 26.536C55.9533 25.912 55.0053 25.6 53.8293 25.6C52.6053 25.6 51.6333 25.912 50.9133 26.536C50.1933 27.16 49.7493 27.988 49.5813 29.02ZM66.5786 40V14.8H71.1146V28.732H71.7626L77.6666 22.144H83.5706L75.3266 30.784L83.8586 40H78.0266L71.7626 32.908H71.1146V40H66.5786Z" fill="black"/>
</svg>
