<?xml version="1.0" encoding="UTF-8" standalone="no"?>
<svg
   width="1366"
   height="1536"
   viewBox="0 0 1366 1536"
   fill="none"
   version="1.1"
   id="svg24"
   xmlns="http://www.w3.org/2000/svg"
   xmlns:svg="http://www.w3.org/2000/svg">
  <g
     filter="url(#filter0_f_105_73)"
     id="g3">
    <circle
       cx="20"
       cy="1039"
       r="353"
       fill="#361767"
       id="circle1" />
    <circle
       cx="1017.5"
       cy="893.5"
       r="420.5"
       fill="#c32fc6"
       id="circle2" />
    <circle
       cx="1250"
       cy="857"
       r="384"
       fill="#ff7a00"
       id="circle3" />
  </g>
  <g
     filter="url(#filter1_f_105_73)"
     id="g7">
    <circle
       cx="77"
       cy="497"
       r="353"
       fill="#361767"
       id="circle4" />
    <circle
       cx="388"
       cy="359"
       r="114"
       fill="#2b0e3c"
       id="circle5" />
    <circle
       cx="497.5"
       cy="615.5"
       r="420.5"
       fill="#c32fc6"
       id="circle6" />
    <circle
       cx="1250"
       cy="627"
       r="384"
       fill="#6ef4c3"
       id="circle7" />
  </g>
  <path
     d="m 6.64,246.28 c -1.73333,0 -3.10667,-0.48 -4.12,-1.44 C 1.50667,243.867 1,242.48 1,240.68 v -3.36 c 0,-1.8 0.50667,-3.18 1.52,-4.14 1.01333,-0.973 2.38667,-1.46 4.12,-1.46 1.72,0 3.04667,0.473 3.98,1.42 0.9467,0.933 1.42,2.22 1.42,3.86 v 0.12 h -2.6 v -0.2 c 0,-0.827 -0.23333,-1.507 -0.7,-2.04 -0.45333,-0.533 -1.15333,-0.8 -2.1,-0.8 -0.93333,0 -1.66667,0.287 -2.2,0.86 -0.53333,0.573 -0.8,1.353 -0.8,2.34 v 3.44 c 0,0.973 0.26667,1.753 0.8,2.34 0.53333,0.573 1.26667,0.86 2.2,0.86 0.94667,0 1.64667,-0.267 2.1,-0.8 0.46667,-0.547 0.7,-1.227 0.7,-2.04 v -0.36 h 2.6 V 241 c 0,1.64 -0.4733,2.933 -1.42,3.88 -0.93333,0.933 -2.26,1.4 -3.98,1.4 z M 13.7911,246 v -2.32 h 1.84 v -9.36 h -1.84 V 232 h 7.2 c 0.8533,0 1.5933,0.147 2.22,0.44 0.64,0.28 1.1333,0.687 1.48,1.22 0.36,0.52 0.54,1.147 0.54,1.88 v 0.2 c 0,0.64 -0.12,1.167 -0.36,1.58 -0.24,0.4 -0.5267,0.713 -0.86,0.94 -0.32,0.213 -0.6267,0.367 -0.92,0.46 v 0.36 c 0.2933,0.08 0.6133,0.233 0.96,0.46 0.3467,0.213 0.64,0.527 0.88,0.94 0.2533,0.413 0.38,0.953 0.38,1.62 v 0.2 c 0,0.773 -0.18,1.44 -0.54,2 -0.36,0.547 -0.86,0.967 -1.5,1.26 -0.6267,0.293 -1.36,0.44 -2.2,0.44 z m 4.48,-2.4 h 2.48 c 0.5733,0 1.0333,-0.14 1.38,-0.42 0.36,-0.28 0.54,-0.68 0.54,-1.2 v -0.2 c 0,-0.52 -0.1733,-0.92 -0.52,-1.2 -0.3467,-0.28 -0.8133,-0.42 -1.4,-0.42 h -2.48 z m 0,-5.84 h 2.44 c 0.5467,0 0.9933,-0.14 1.34,-0.42 0.36,-0.28 0.54,-0.667 0.54,-1.16 v -0.2 c 0,-0.507 -0.1733,-0.893 -0.52,-1.16 -0.3467,-0.28 -0.8,-0.42 -1.36,-0.42 h -2.44 z m 9.2012,8.24 v -14 h 5.02 l 2.78,12.2 h 0.36 V 232 h 2.6 v 14 h -5.02 l -2.78,-12.2 h -0.36 V 246 Z m 17.1185,0 v -12.48 h -4.5 V 232 h 10.68 v 1.52 h -4.5 V 246 Z m 8.3178,0 v -14 h 8.62 v 1.52 h -6.94 v 4.68 h 6.38 v 1.52 h -6.38 v 4.76 h 7.04 V 246 Z m 16.3295,0.28 c -1.6666,0 -2.9933,-0.48 -3.98,-1.44 -0.9866,-0.973 -1.48,-2.387 -1.48,-4.24 v -3.2 c 0,-1.853 0.4934,-3.26 1.48,-4.22 0.9867,-0.973 2.3134,-1.46 3.98,-1.46 1.6534,0 2.92,0.46 3.8,1.38 0.8934,0.92 1.34,2.18 1.34,3.78 v 0.1 h -1.66 v -0.16 c 0,-1.053 -0.2866,-1.913 -0.86,-2.58 -0.56,-0.68 -1.4333,-1.02 -2.62,-1.02 -1.1866,0 -2.1133,0.367 -2.78,1.1 -0.6666,0.72 -1,1.733 -1,3.04 v 3.28 c 0,1.307 0.3334,2.327 1,3.06 0.6667,0.72 1.5934,1.08 2.78,1.08 1.1867,0 2.06,-0.333 2.62,-1 0.5734,-0.68 0.86,-1.547 0.86,-2.6 v -0.32 h 1.66 v 0.26 c 0,1.6 -0.4466,2.86 -1.34,3.78 -0.88,0.92 -2.1466,1.38 -3.8,1.38 z M 77.0102,246 v -14 h 1.68 v 6.22 h 6.56 V 232 h 1.68 v 14 h -1.68 v -6.26 h -6.56 V 246 Z m 13.125,0 v -14 h 3.26 l 4.88,12.94 h 0.26 V 232 h 1.6598 v 14 h -3.2598 l -4.86,-12.96 h -0.28 V 246 Z m 18.3608,0.28 c -1.666,0 -3,-0.48 -4,-1.44 -0.986,-0.973 -1.48,-2.387 -1.48,-4.24 v -3.2 c 0,-1.853 0.494,-3.26 1.48,-4.22 1,-0.973 2.334,-1.46 4,-1.46 1.68,0 3.014,0.487 4,1.46 1,0.96 1.5,2.367 1.5,4.22 v 3.2 c 0,1.853 -0.5,3.267 -1.5,4.24 -0.986,0.96 -2.32,1.44 -4,1.44 z m 0,-1.5 c 1.214,0 2.154,-0.36 2.82,-1.08 0.667,-0.733 1,-1.747 1,-3.04 v -3.32 c 0,-1.293 -0.333,-2.3 -1,-3.02 -0.666,-0.733 -1.606,-1.1 -2.82,-1.1 -1.2,0 -2.133,0.367 -2.8,1.1 -0.666,0.72 -1,1.727 -1,3.02 v 3.32 c 0,1.293 0.334,2.307 1,3.04 0.667,0.72 1.6,1.08 2.8,1.08 z m 8.299,1.22 v -14 h 1.68 v 12.48 h 7.08 V 246 Z m 15.608,0.28 c -1.667,0 -3,-0.48 -4,-1.44 -0.987,-0.973 -1.48,-2.387 -1.48,-4.24 v -3.2 c 0,-1.853 0.493,-3.26 1.48,-4.22 1,-0.973 2.333,-1.46 4,-1.46 1.68,0 3.013,0.487 4,1.46 1,0.96 1.5,2.367 1.5,4.22 v 3.2 c 0,1.853 -0.5,3.267 -1.5,4.24 -0.987,0.96 -2.32,1.44 -4,1.44 z m 0,-1.5 c 1.213,0 2.153,-0.36 2.82,-1.08 0.666,-0.733 1,-1.747 1,-3.04 v -3.32 c 0,-1.293 -0.334,-2.3 -1,-3.02 -0.667,-0.733 -1.607,-1.1 -2.82,-1.1 -1.2,0 -2.134,0.367 -2.8,1.1 -0.667,0.72 -1,1.727 -1,3.02 v 3.32 c 0,1.293 0.333,2.307 1,3.04 0.666,0.72 1.6,1.08 2.8,1.08 z m 13.179,1.5 c -1.04,0 -1.96,-0.213 -2.76,-0.64 -0.787,-0.44 -1.407,-1.08 -1.86,-1.92 -0.44,-0.84 -0.66,-1.88 -0.66,-3.12 v -3.2 c 0,-1.853 0.493,-3.26 1.48,-4.22 0.986,-0.973 2.313,-1.46 3.98,-1.46 1.653,0 2.913,0.453 3.78,1.36 0.866,0.907 1.3,2.12 1.3,3.64 v 0.1 h -1.66 v -0.14 c 0,-0.667 -0.12,-1.26 -0.36,-1.78 -0.24,-0.52 -0.614,-0.927 -1.12,-1.22 -0.507,-0.307 -1.154,-0.46 -1.94,-0.46 -1.187,0 -2.114,0.367 -2.78,1.1 -0.667,0.72 -1,1.733 -1,3.04 v 3.28 c 0,1.307 0.333,2.327 1,3.06 0.666,0.72 1.6,1.08 2.8,1.08 1.173,0 2.033,-0.333 2.58,-1 0.56,-0.667 0.84,-1.553 0.84,-2.66 v -0.34 h -4.24 v -1.44 h 5.88 V 246 h -1.52 v -1.52 h -0.28 c -0.147,0.293 -0.354,0.58 -0.62,0.86 -0.267,0.28 -0.627,0.507 -1.08,0.68 -0.454,0.173 -1.04,0.26 -1.76,0.26 z m 8.323,-0.28 v -14 h 1.68 v 14 z m 4.883,0 v -14 h 8.62 v 1.52 h -6.94 v 4.68 h 6.38 v 1.52 h -6.38 v 4.76 h 7.04 V 246 Z m 15.929,0.28 c -1.013,0 -1.92,-0.18 -2.72,-0.54 -0.8,-0.36 -1.433,-0.9 -1.9,-1.62 -0.453,-0.733 -0.68,-1.647 -0.68,-2.74 v -0.42 h 1.66 v 0.42 c 0,1.16 0.34,2.027 1.02,2.6 0.68,0.56 1.553,0.84 2.62,0.84 1.093,0 1.927,-0.247 2.5,-0.74 0.573,-0.493 0.86,-1.113 0.86,-1.86 0,-0.52 -0.133,-0.933 -0.4,-1.24 -0.253,-0.307 -0.613,-0.553 -1.08,-0.74 -0.467,-0.2 -1.013,-0.373 -1.64,-0.52 l -1.04,-0.26 c -0.813,-0.213 -1.533,-0.473 -2.16,-0.78 -0.627,-0.307 -1.12,-0.707 -1.48,-1.2 -0.347,-0.507 -0.52,-1.153 -0.52,-1.94 0,-0.787 0.193,-1.467 0.58,-2.04 0.4,-0.573 0.953,-1.013 1.66,-1.32 0.72,-0.307 1.547,-0.46 2.48,-0.46 0.947,0 1.793,0.167 2.54,0.5 0.76,0.32 1.353,0.8 1.78,1.44 0.44,0.627 0.66,1.42 0.66,2.38 v 0.84 h -1.66 v -0.84 c 0,-0.68 -0.147,-1.227 -0.44,-1.64 -0.28,-0.413 -0.673,-0.72 -1.18,-0.92 -0.493,-0.2 -1.06,-0.3 -1.7,-0.3 -0.92,0 -1.66,0.207 -2.22,0.62 -0.56,0.4 -0.84,0.973 -0.84,1.72 0,0.493 0.12,0.893 0.36,1.2 0.24,0.307 0.58,0.56 1.02,0.76 0.44,0.187 0.967,0.353 1.58,0.5 l 1.04,0.26 c 0.813,0.173 1.54,0.413 2.18,0.72 0.653,0.293 1.173,0.7 1.56,1.22 0.387,0.507 0.58,1.173 0.58,2 0,0.827 -0.207,1.547 -0.62,2.16 -0.413,0.613 -1,1.093 -1.76,1.44 -0.747,0.333 -1.627,0.5 -2.64,0.5 z m 12.646,0 c -1.734,0 -3.107,-0.48 -4.12,-1.44 -1.014,-0.973 -1.52,-2.36 -1.52,-4.16 v -3.36 c 0,-1.8 0.506,-3.18 1.52,-4.14 1.013,-0.973 2.386,-1.46 4.12,-1.46 1.72,0 3.046,0.473 3.98,1.42 0.946,0.933 1.42,2.22 1.42,3.86 v 0.12 h -2.6 v -0.2 c 0,-0.827 -0.234,-1.507 -0.7,-2.04 -0.454,-0.533 -1.154,-0.8 -2.1,-0.8 -0.934,0 -1.667,0.287 -2.2,0.86 -0.534,0.573 -0.8,1.353 -0.8,2.34 v 3.44 c 0,0.973 0.266,1.753 0.8,2.34 0.533,0.573 1.266,0.86 2.2,0.86 0.946,0 1.646,-0.267 2.1,-0.8 0.466,-0.547 0.7,-1.227 0.7,-2.04 v -0.36 h 2.6 V 241 c 0,1.64 -0.474,2.933 -1.42,3.88 -0.934,0.933 -2.26,1.4 -3.98,1.4 z m 7.151,-0.28 v -2.32 h 1.84 v -9.36 h -1.84 V 232 h 7.2 c 0.853,0 1.593,0.147 2.22,0.44 0.64,0.28 1.133,0.687 1.48,1.22 0.36,0.52 0.54,1.147 0.54,1.88 v 0.2 c 0,0.64 -0.12,1.167 -0.36,1.58 -0.24,0.4 -0.527,0.713 -0.86,0.94 -0.32,0.213 -0.627,0.367 -0.92,0.46 v 0.36 c 0.293,0.08 0.613,0.233 0.96,0.46 0.346,0.213 0.64,0.527 0.88,0.94 0.253,0.413 0.38,0.953 0.38,1.62 v 0.2 c 0,0.773 -0.18,1.44 -0.54,2 -0.36,0.547 -0.86,0.967 -1.5,1.26 -0.627,0.293 -1.36,0.44 -2.2,0.44 z m 4.48,-2.4 h 2.48 c 0.573,0 1.033,-0.14 1.38,-0.42 0.36,-0.28 0.54,-0.68 0.54,-1.2 v -0.2 c 0,-0.52 -0.174,-0.92 -0.52,-1.2 -0.347,-0.28 -0.814,-0.42 -1.4,-0.42 h -2.48 z m 0,-5.84 h 2.44 c 0.546,0 0.993,-0.14 1.34,-0.42 0.36,-0.28 0.54,-0.667 0.54,-1.16 v -0.2 c 0,-0.507 -0.174,-0.893 -0.52,-1.16 -0.347,-0.28 -0.8,-0.42 -1.36,-0.42 h -2.44 z m 9.201,8.24 v -14 h 5.02 l 2.78,12.2 h 0.36 V 232 h 2.6 v 14 h -5.02 l -2.78,-12.2 h -0.36 V 246 Z m 17.118,0 v -12.48 h -4.5 V 232 h 10.68 v 1.52 h -4.5 V 246 Z m 8.318,0 v -14 h 8.62 v 1.52 h -6.94 v 4.68 h 6.38 v 1.52 h -6.38 v 4.76 h 7.04 V 246 Z m 16.33,0.28 c -1.667,0 -2.994,-0.48 -3.98,-1.44 -0.987,-0.973 -1.48,-2.387 -1.48,-4.24 v -3.2 c 0,-1.853 0.493,-3.26 1.48,-4.22 0.986,-0.973 2.313,-1.46 3.98,-1.46 1.653,0 2.92,0.46 3.8,1.38 0.893,0.92 1.34,2.18 1.34,3.78 v 0.1 h -1.66 v -0.16 c 0,-1.053 -0.287,-1.913 -0.86,-2.58 -0.56,-0.68 -1.434,-1.02 -2.62,-1.02 -1.187,0 -2.114,0.367 -2.78,1.1 -0.667,0.72 -1,1.733 -1,3.04 v 3.28 c 0,1.307 0.333,2.327 1,3.06 0.666,0.72 1.593,1.08 2.78,1.08 1.186,0 2.06,-0.333 2.62,-1 0.573,-0.68 0.86,-1.547 0.86,-2.6 v -0.32 h 1.66 v 0.26 c 0,1.6 -0.447,2.86 -1.34,3.78 -0.88,0.92 -2.147,1.38 -3.8,1.38 z m 7.772,-0.28 v -14 h 1.68 v 6.22 h 6.56 V 232 h 1.68 v 14 h -1.68 v -6.26 h -6.56 V 246 Z m 13.125,0 v -14 h 3.26 l 4.88,12.94 h 0.26 V 232 h 1.66 v 14 h -3.26 l -4.86,-12.96 h -0.28 V 246 Z m 18.361,0.28 c -1.667,0 -3,-0.48 -4,-1.44 -0.987,-0.973 -1.48,-2.387 -1.48,-4.24 v -3.2 c 0,-1.853 0.493,-3.26 1.48,-4.22 1,-0.973 2.333,-1.46 4,-1.46 1.68,0 3.013,0.487 4,1.46 1,0.96 1.5,2.367 1.5,4.22 v 3.2 c 0,1.853 -0.5,3.267 -1.5,4.24 -0.987,0.96 -2.32,1.44 -4,1.44 z m 0,-1.5 c 1.213,0 2.153,-0.36 2.82,-1.08 0.667,-0.733 1,-1.747 1,-3.04 v -3.32 c 0,-1.293 -0.333,-2.3 -1,-3.02 -0.667,-0.733 -1.607,-1.1 -2.82,-1.1 -1.2,0 -2.133,0.367 -2.8,1.1 -0.667,0.72 -1,1.727 -1,3.02 v 3.32 c 0,1.293 0.333,2.307 1,3.04 0.667,0.72 1.6,1.08 2.8,1.08 z m 8.299,1.22 v -14 h 1.68 v 12.48 h 7.08 V 246 Z m 15.607,0.28 c -1.666,0 -3,-0.48 -4,-1.44 -0.986,-0.973 -1.48,-2.387 -1.48,-4.24 v -3.2 c 0,-1.853 0.494,-3.26 1.48,-4.22 1,-0.973 2.334,-1.46 4,-1.46 1.68,0 3.014,0.487 4,1.46 1,0.96 1.5,2.367 1.5,4.22 v 3.2 c 0,1.853 -0.5,3.267 -1.5,4.24 -0.986,0.96 -2.32,1.44 -4,1.44 z m 0,-1.5 c 1.214,0 2.154,-0.36 2.82,-1.08 0.667,-0.733 1,-1.747 1,-3.04 v -3.32 c 0,-1.293 -0.333,-2.3 -1,-3.02 -0.666,-0.733 -1.606,-1.1 -2.82,-1.1 -1.2,0 -2.133,0.367 -2.8,1.1 -0.666,0.72 -1,1.727 -1,3.02 v 3.32 c 0,1.293 0.334,2.307 1,3.04 0.667,0.72 1.6,1.08 2.8,1.08 z m 13.179,1.5 c -1.04,0 -1.96,-0.213 -2.76,-0.64 -0.786,-0.44 -1.406,-1.08 -1.86,-1.92 -0.44,-0.84 -0.66,-1.88 -0.66,-3.12 v -3.2 c 0,-1.853 0.494,-3.26 1.48,-4.22 0.987,-0.973 2.314,-1.46 3.98,-1.46 1.654,0 2.914,0.453 3.78,1.36 0.867,0.907 1.3,2.12 1.3,3.64 v 0.1 h -1.66 v -0.14 c 0,-0.667 -0.12,-1.26 -0.36,-1.78 -0.24,-0.52 -0.613,-0.927 -1.12,-1.22 -0.506,-0.307 -1.153,-0.46 -1.94,-0.46 -1.186,0 -2.113,0.367 -2.78,1.1 -0.666,0.72 -1,1.733 -1,3.04 v 3.28 c 0,1.307 0.334,2.327 1,3.06 0.667,0.72 1.6,1.08 2.8,1.08 1.174,0 2.034,-0.333 2.58,-1 0.56,-0.667 0.84,-1.553 0.84,-2.66 v -0.34 h -4.24 v -1.44 h 5.88 V 246 h -1.52 v -1.52 h -0.28 c -0.146,0.293 -0.353,0.58 -0.62,0.86 -0.266,0.28 -0.626,0.507 -1.08,0.68 -0.453,0.173 -1.04,0.26 -1.76,0.26 z m 8.323,-0.28 v -14 h 1.68 v 14 z m 4.883,0 v -14 h 8.62 v 1.52 h -6.94 v 4.68 h 6.38 v 1.52 h -6.38 v 4.76 h 7.04 V 246 Z m 15.93,0.28 c -1.014,0 -1.92,-0.18 -2.72,-0.54 -0.8,-0.36 -1.434,-0.9 -1.9,-1.62 -0.454,-0.733 -0.68,-1.647 -0.68,-2.74 v -0.42 h 1.66 v 0.42 c 0,1.16 0.34,2.027 1.02,2.6 0.68,0.56 1.553,0.84 2.62,0.84 1.093,0 1.926,-0.247 2.5,-0.74 0.573,-0.493 0.86,-1.113 0.86,-1.86 0,-0.52 -0.134,-0.933 -0.4,-1.24 -0.254,-0.307 -0.614,-0.553 -1.08,-0.74 -0.467,-0.2 -1.014,-0.373 -1.64,-0.52 l -1.04,-0.26 c -0.814,-0.213 -1.534,-0.473 -2.16,-0.78 -0.627,-0.307 -1.12,-0.707 -1.48,-1.2 -0.347,-0.507 -0.52,-1.153 -0.52,-1.94 0,-0.787 0.193,-1.467 0.58,-2.04 0.4,-0.573 0.953,-1.013 1.66,-1.32 0.72,-0.307 1.546,-0.46 2.48,-0.46 0.946,0 1.793,0.167 2.54,0.5 0.76,0.32 1.353,0.8 1.78,1.44 0.44,0.627 0.66,1.42 0.66,2.38 v 0.84 h -1.66 v -0.84 c 0,-0.68 -0.147,-1.227 -0.44,-1.64 -0.28,-0.413 -0.674,-0.72 -1.18,-0.92 -0.494,-0.2 -1.06,-0.3 -1.7,-0.3 -0.92,0 -1.66,0.207 -2.22,0.62 -0.56,0.4 -0.84,0.973 -0.84,1.72 0,0.493 0.12,0.893 0.36,1.2 0.24,0.307 0.58,0.56 1.02,0.76 0.44,0.187 0.966,0.353 1.58,0.5 l 1.04,0.26 c 0.813,0.173 1.54,0.413 2.18,0.72 0.653,0.293 1.173,0.7 1.56,1.22 0.386,0.507 0.58,1.173 0.58,2 0,0.827 -0.207,1.547 -0.62,2.16 -0.414,0.613 -1,1.093 -1.76,1.44 -0.747,0.333 -1.627,0.5 -2.64,0.5 z m 12.645,0 c -1.733,0 -3.106,-0.48 -4.12,-1.44 -1.013,-0.973 -1.52,-2.36 -1.52,-4.16 v -3.36 c 0,-1.8 0.507,-3.18 1.52,-4.14 1.014,-0.973 2.387,-1.46 4.12,-1.46 1.72,0 3.047,0.473 3.98,1.42 0.947,0.933 1.42,2.22 1.42,3.86 v 0.12 h -2.6 v -0.2 c 0,-0.827 -0.233,-1.507 -0.7,-2.04 -0.453,-0.533 -1.153,-0.8 -2.1,-0.8 -0.933,0 -1.666,0.287 -2.2,0.86 -0.533,0.573 -0.8,1.353 -0.8,2.34 v 3.44 c 0,0.973 0.267,1.753 0.8,2.34 0.534,0.573 1.267,0.86 2.2,0.86 0.947,0 1.647,-0.267 2.1,-0.8 0.467,-0.547 0.7,-1.227 0.7,-2.04 v -0.36 h 2.6 V 241 c 0,1.64 -0.473,2.933 -1.42,3.88 -0.933,0.933 -2.26,1.4 -3.98,1.4 z m 7.151,-0.28 v -2.32 h 1.84 v -9.36 h -1.84 V 232 h 7.2 c 0.854,0 1.594,0.147 2.22,0.44 0.64,0.28 1.134,0.687 1.48,1.22 0.36,0.52 0.54,1.147 0.54,1.88 v 0.2 c 0,0.64 -0.12,1.167 -0.36,1.58 -0.24,0.4 -0.526,0.713 -0.86,0.94 -0.32,0.213 -0.626,0.367 -0.92,0.46 v 0.36 c 0.294,0.08 0.614,0.233 0.96,0.46 0.347,0.213 0.64,0.527 0.88,0.94 0.254,0.413 0.38,0.953 0.38,1.62 v 0.2 c 0,0.773 -0.18,1.44 -0.54,2 -0.36,0.547 -0.86,0.967 -1.5,1.26 -0.626,0.293 -1.36,0.44 -2.2,0.44 z m 4.48,-2.4 h 2.48 c 0.574,0 1.034,-0.14 1.38,-0.42 0.36,-0.28 0.54,-0.68 0.54,-1.2 v -0.2 c 0,-0.52 -0.173,-0.92 -0.52,-1.2 -0.346,-0.28 -0.813,-0.42 -1.4,-0.42 h -2.48 z m 0,-5.84 h 2.44 c 0.547,0 0.994,-0.14 1.34,-0.42 0.36,-0.28 0.54,-0.667 0.54,-1.16 v -0.2 c 0,-0.507 -0.173,-0.893 -0.52,-1.16 -0.346,-0.28 -0.8,-0.42 -1.36,-0.42 h -2.44 z m 9.202,8.24 v -14 h 5.02 l 2.78,12.2 h 0.36 V 232 h 2.6 v 14 h -5.02 l -2.78,-12.2 h -0.36 V 246 Z m 17.118,0 v -12.48 h -4.5 V 232 h 10.68 v 1.52 h -4.5 V 246 Z m 8.318,0 v -14 h 8.62 v 1.52 h -6.94 v 4.68 h 6.38 v 1.52 h -6.38 v 4.76 h 7.04 V 246 Z m 16.329,0.28 c -1.666,0 -2.993,-0.48 -3.98,-1.44 -0.986,-0.973 -1.48,-2.387 -1.48,-4.24 v -3.2 c 0,-1.853 0.494,-3.26 1.48,-4.22 0.987,-0.973 2.314,-1.46 3.98,-1.46 1.654,0 2.92,0.46 3.8,1.38 0.894,0.92 1.34,2.18 1.34,3.78 v 0.1 h -1.66 v -0.16 c 0,-1.053 -0.286,-1.913 -0.86,-2.58 -0.56,-0.68 -1.433,-1.02 -2.62,-1.02 -1.186,0 -2.113,0.367 -2.78,1.1 -0.666,0.72 -1,1.733 -1,3.04 v 3.28 c 0,1.307 0.334,2.327 1,3.06 0.667,0.72 1.594,1.08 2.78,1.08 1.187,0 2.06,-0.333 2.62,-1 0.574,-0.68 0.86,-1.547 0.86,-2.6 v -0.32 h 1.66 v 0.26 c 0,1.6 -0.446,2.86 -1.34,3.78 -0.88,0.92 -2.146,1.38 -3.8,1.38 z m 7.772,-0.28 v -14 h 1.68 v 6.22 h 6.56 V 232 h 1.68 v 14 h -1.68 v -6.26 h -6.56 V 246 Z m 13.125,0 v -14 h 3.26 l 4.88,12.94 h 0.26 V 232 h 1.66 v 14 h -3.26 l -4.86,-12.96 h -0.28 V 246 Z m 18.362,0.28 c -1.667,0 -3,-0.48 -4,-1.44 -0.987,-0.973 -1.48,-2.387 -1.48,-4.24 v -3.2 c 0,-1.853 0.493,-3.26 1.48,-4.22 1,-0.973 2.333,-1.46 4,-1.46 1.68,0 3.013,0.487 4,1.46 1,0.96 1.5,2.367 1.5,4.22 v 3.2 c 0,1.853 -0.5,3.267 -1.5,4.24 -0.987,0.96 -2.32,1.44 -4,1.44 z m 0,-1.5 c 1.213,0 2.153,-0.36 2.82,-1.08 0.666,-0.733 1,-1.747 1,-3.04 v -3.32 c 0,-1.293 -0.334,-2.3 -1,-3.02 -0.667,-0.733 -1.607,-1.1 -2.82,-1.1 -1.2,0 -2.134,0.367 -2.8,1.1 -0.667,0.72 -1,1.727 -1,3.02 v 3.32 c 0,1.293 0.333,2.307 1,3.04 0.666,0.72 1.6,1.08 2.8,1.08 z m 8.299,1.22 v -14 h 1.68 v 12.48 h 7.08 V 246 Z m 15.607,0.28 c -1.667,0 -3,-0.48 -4,-1.44 -0.987,-0.973 -1.48,-2.387 -1.48,-4.24 v -3.2 c 0,-1.853 0.493,-3.26 1.48,-4.22 1,-0.973 2.333,-1.46 4,-1.46 1.68,0 3.013,0.487 4,1.46 1,0.96 1.5,2.367 1.5,4.22 v 3.2 c 0,1.853 -0.5,3.267 -1.5,4.24 -0.987,0.96 -2.32,1.44 -4,1.44 z m 0,-1.5 c 1.213,0 2.153,-0.36 2.82,-1.08 0.667,-0.733 1,-1.747 1,-3.04 v -3.32 c 0,-1.293 -0.333,-2.3 -1,-3.02 -0.667,-0.733 -1.607,-1.1 -2.82,-1.1 -1.2,0 -2.133,0.367 -2.8,1.1 -0.667,0.72 -1,1.727 -1,3.02 v 3.32 c 0,1.293 0.333,2.307 1,3.04 0.667,0.72 1.6,1.08 2.8,1.08 z m 13.179,1.5 c -1.04,0 -1.96,-0.213 -2.76,-0.64 -0.787,-0.44 -1.407,-1.08 -1.86,-1.92 -0.44,-0.84 -0.66,-1.88 -0.66,-3.12 v -3.2 c 0,-1.853 0.493,-3.26 1.48,-4.22 0.987,-0.973 2.313,-1.46 3.98,-1.46 1.653,0 2.913,0.453 3.78,1.36 0.867,0.907 1.3,2.12 1.3,3.64 v 0.1 h -1.66 v -0.14 c 0,-0.667 -0.12,-1.26 -0.36,-1.78 -0.24,-0.52 -0.613,-0.927 -1.12,-1.22 -0.507,-0.307 -1.153,-0.46 -1.94,-0.46 -1.187,0 -2.113,0.367 -2.78,1.1 -0.667,0.72 -1,1.733 -1,3.04 v 3.28 c 0,1.307 0.333,2.327 1,3.06 0.667,0.72 1.6,1.08 2.8,1.08 1.173,0 2.033,-0.333 2.58,-1 0.56,-0.667 0.84,-1.553 0.84,-2.66 v -0.34 h -4.24 v -1.44 h 5.88 V 246 h -1.52 v -1.52 h -0.28 c -0.147,0.293 -0.353,0.58 -0.62,0.86 -0.267,0.28 -0.627,0.507 -1.08,0.68 -0.453,0.173 -1.04,0.26 -1.76,0.26 z M 515.35,246 v -14 h 1.68 v 14 z m 4.883,0 v -14 h 8.62 v 1.52 h -6.94 v 4.68 h 6.38 v 1.52 h -6.38 v 4.76 h 7.04 V 246 Z m 15.929,0.28 c -1.013,0 -1.92,-0.18 -2.72,-0.54 -0.8,-0.36 -1.433,-0.9 -1.9,-1.62 -0.453,-0.733 -0.68,-1.647 -0.68,-2.74 v -0.42 h 1.66 v 0.42 c 0,1.16 0.34,2.027 1.02,2.6 0.68,0.56 1.554,0.84 2.62,0.84 1.094,0 1.927,-0.247 2.5,-0.74 0.574,-0.493 0.86,-1.113 0.86,-1.86 0,-0.52 -0.133,-0.933 -0.4,-1.24 -0.253,-0.307 -0.613,-0.553 -1.08,-0.74 -0.466,-0.2 -1.013,-0.373 -1.64,-0.52 l -1.04,-0.26 c -0.813,-0.213 -1.533,-0.473 -2.16,-0.78 -0.626,-0.307 -1.12,-0.707 -1.48,-1.2 -0.346,-0.507 -0.52,-1.153 -0.52,-1.94 0,-0.787 0.194,-1.467 0.58,-2.04 0.4,-0.573 0.954,-1.013 1.66,-1.32 0.72,-0.307 1.547,-0.46 2.48,-0.46 0.947,0 1.794,0.167 2.54,0.5 0.76,0.32 1.354,0.8 1.78,1.44 0.44,0.627 0.66,1.42 0.66,2.38 v 0.84 h -1.66 v -0.84 c 0,-0.68 -0.146,-1.227 -0.44,-1.64 -0.28,-0.413 -0.673,-0.72 -1.18,-0.92 -0.493,-0.2 -1.06,-0.3 -1.7,-0.3 -0.92,0 -1.66,0.207 -2.22,0.62 -0.56,0.4 -0.84,0.973 -0.84,1.72 0,0.493 0.12,0.893 0.36,1.2 0.24,0.307 0.58,0.56 1.02,0.76 0.44,0.187 0.967,0.353 1.58,0.5 l 1.04,0.26 c 0.814,0.173 1.54,0.413 2.18,0.72 0.654,0.293 1.174,0.7 1.56,1.22 0.387,0.507 0.58,1.173 0.58,2 0,0.827 -0.206,1.547 -0.62,2.16 -0.413,0.613 -1,1.093 -1.76,1.44 -0.746,0.333 -1.626,0.5 -2.64,0.5 z m 12.646,0 c -1.733,0 -3.107,-0.48 -4.12,-1.44 -1.013,-0.973 -1.52,-2.36 -1.52,-4.16 v -3.36 c 0,-1.8 0.507,-3.18 1.52,-4.14 1.013,-0.973 2.387,-1.46 4.12,-1.46 1.72,0 3.047,0.473 3.98,1.42 0.947,0.933 1.42,2.22 1.42,3.86 v 0.12 h -2.6 v -0.2 c 0,-0.827 -0.233,-1.507 -0.7,-2.04 -0.453,-0.533 -1.153,-0.8 -2.1,-0.8 -0.933,0 -1.667,0.287 -2.2,0.86 -0.533,0.573 -0.8,1.353 -0.8,2.34 v 3.44 c 0,0.973 0.267,1.753 0.8,2.34 0.533,0.573 1.267,0.86 2.2,0.86 0.947,0 1.647,-0.267 2.1,-0.8 0.467,-0.547 0.7,-1.227 0.7,-2.04 v -0.36 h 2.6 V 241 c 0,1.64 -0.473,2.933 -1.42,3.88 -0.933,0.933 -2.26,1.4 -3.98,1.4 z m 7.151,-0.28 v -2.32 h 1.84 v -9.36 h -1.84 V 232 h 7.2 c 0.853,0 1.593,0.147 2.22,0.44 0.64,0.28 1.133,0.687 1.48,1.22 0.36,0.52 0.54,1.147 0.54,1.88 v 0.2 c 0,0.64 -0.12,1.167 -0.36,1.58 -0.24,0.4 -0.527,0.713 -0.86,0.94 -0.32,0.213 -0.627,0.367 -0.92,0.46 v 0.36 c 0.293,0.08 0.613,0.233 0.96,0.46 0.347,0.213 0.64,0.527 0.88,0.94 0.253,0.413 0.38,0.953 0.38,1.62 v 0.2 c 0,0.773 -0.18,1.44 -0.54,2 -0.36,0.547 -0.86,0.967 -1.5,1.26 -0.627,0.293 -1.36,0.44 -2.2,0.44 z m 4.48,-2.4 h 2.48 c 0.573,0 1.033,-0.14 1.38,-0.42 0.36,-0.28 0.54,-0.68 0.54,-1.2 v -0.2 c 0,-0.52 -0.173,-0.92 -0.52,-1.2 -0.347,-0.28 -0.813,-0.42 -1.4,-0.42 h -2.48 z m 0,-5.84 h 2.44 c 0.547,0 0.993,-0.14 1.34,-0.42 0.36,-0.28 0.54,-0.667 0.54,-1.16 v -0.2 c 0,-0.507 -0.173,-0.893 -0.52,-1.16 -0.347,-0.28 -0.8,-0.42 -1.36,-0.42 h -2.44 z m 9.201,8.24 v -14 h 5.02 l 2.78,12.2 h 0.36 V 232 h 2.6 v 14 h -5.02 l -2.78,-12.2 h -0.36 V 246 Z m 17.119,0 v -12.48 h -4.5 V 232 h 10.68 v 1.52 h -4.5 V 246 Z m 8.318,0 v -14 h 8.62 v 1.52 h -6.94 v 4.68 h 6.38 v 1.52 h -6.38 v 4.76 h 7.04 V 246 Z m 16.329,0.28 c -1.667,0 -2.993,-0.48 -3.98,-1.44 -0.987,-0.973 -1.48,-2.387 -1.48,-4.24 v -3.2 c 0,-1.853 0.493,-3.26 1.48,-4.22 0.987,-0.973 2.313,-1.46 3.98,-1.46 1.653,0 2.92,0.46 3.8,1.38 0.893,0.92 1.34,2.18 1.34,3.78 v 0.1 h -1.66 v -0.16 c 0,-1.053 -0.287,-1.913 -0.86,-2.58 -0.56,-0.68 -1.433,-1.02 -2.62,-1.02 -1.187,0 -2.113,0.367 -2.78,1.1 -0.667,0.72 -1,1.733 -1,3.04 v 3.28 c 0,1.307 0.333,2.327 1,3.06 0.667,0.72 1.593,1.08 2.78,1.08 1.187,0 2.06,-0.333 2.62,-1 0.573,-0.68 0.86,-1.547 0.86,-2.6 v -0.32 h 1.66 v 0.26 c 0,1.6 -0.447,2.86 -1.34,3.78 -0.88,0.92 -2.147,1.38 -3.8,1.38 z m 7.772,-0.28 v -14 h 1.68 v 6.22 h 6.56 V 232 h 1.68 v 14 h -1.68 v -6.26 h -6.56 V 246 Z m 13.125,0 v -14 h 3.26 l 4.88,12.94 h 0.26 V 232 h 1.66 v 14 h -3.26 l -4.86,-12.96 h -0.28 V 246 Z m 18.361,0.28 c -1.666,0 -3,-0.48 -4,-1.44 -0.986,-0.973 -1.48,-2.387 -1.48,-4.24 v -3.2 c 0,-1.853 0.494,-3.26 1.48,-4.22 1,-0.973 2.334,-1.46 4,-1.46 1.68,0 3.014,0.487 4,1.46 1,0.96 1.5,2.367 1.5,4.22 v 3.2 c 0,1.853 -0.5,3.267 -1.5,4.24 -0.986,0.96 -2.32,1.44 -4,1.44 z m 0,-1.5 c 1.214,0 2.154,-0.36 2.82,-1.08 0.667,-0.733 1,-1.747 1,-3.04 v -3.32 c 0,-1.293 -0.333,-2.3 -1,-3.02 -0.666,-0.733 -1.606,-1.1 -2.82,-1.1 -1.2,0 -2.133,0.367 -2.8,1.1 -0.666,0.72 -1,1.727 -1,3.02 v 3.32 c 0,1.293 0.334,2.307 1,3.04 0.667,0.72 1.6,1.08 2.8,1.08 z m 8.299,1.22 v -14 h 1.68 v 12.48 h 7.08 V 246 Z m 15.608,0.28 c -1.667,0 -3,-0.48 -4,-1.44 -0.987,-0.973 -1.48,-2.387 -1.48,-4.24 v -3.2 c 0,-1.853 0.493,-3.26 1.48,-4.22 1,-0.973 2.333,-1.46 4,-1.46 1.68,0 3.013,0.487 4,1.46 1,0.96 1.5,2.367 1.5,4.22 v 3.2 c 0,1.853 -0.5,3.267 -1.5,4.24 -0.987,0.96 -2.32,1.44 -4,1.44 z m 0,-1.5 c 1.213,0 2.153,-0.36 2.82,-1.08 0.666,-0.733 1,-1.747 1,-3.04 v -3.32 c 0,-1.293 -0.334,-2.3 -1,-3.02 -0.667,-0.733 -1.607,-1.1 -2.82,-1.1 -1.2,0 -2.134,0.367 -2.8,1.1 -0.667,0.72 -1,1.727 -1,3.02 v 3.32 c 0,1.293 0.333,2.307 1,3.04 0.666,0.72 1.6,1.08 2.8,1.08 z m 13.179,1.5 c -1.04,0 -1.96,-0.213 -2.76,-0.64 -0.787,-0.44 -1.407,-1.08 -1.86,-1.92 -0.44,-0.84 -0.66,-1.88 -0.66,-3.12 v -3.2 c 0,-1.853 0.493,-3.26 1.48,-4.22 0.986,-0.973 2.313,-1.46 3.98,-1.46 1.653,0 2.913,0.453 3.78,1.36 0.866,0.907 1.3,2.12 1.3,3.64 v 0.1 h -1.66 v -0.14 c 0,-0.667 -0.12,-1.26 -0.36,-1.78 -0.24,-0.52 -0.614,-0.927 -1.12,-1.22 -0.507,-0.307 -1.154,-0.46 -1.94,-0.46 -1.187,0 -2.114,0.367 -2.78,1.1 -0.667,0.72 -1,1.733 -1,3.04 v 3.28 c 0,1.307 0.333,2.327 1,3.06 0.666,0.72 1.6,1.08 2.8,1.08 1.173,0 2.033,-0.333 2.58,-1 0.56,-0.667 0.84,-1.553 0.84,-2.66 v -0.34 h -4.24 v -1.44 h 5.88 V 246 h -1.52 v -1.52 h -0.28 c -0.147,0.293 -0.354,0.58 -0.62,0.86 -0.267,0.28 -0.627,0.507 -1.08,0.68 -0.454,0.173 -1.04,0.26 -1.76,0.26 z m 8.323,-0.28 v -14 h 1.68 v 14 z m 4.882,0 v -14 h 8.62 v 1.52 h -6.94 v 4.68 h 6.38 v 1.52 h -6.38 v 4.76 h 7.04 V 246 Z m 15.93,0.28 c -1.013,0 -1.92,-0.18 -2.72,-0.54 -0.8,-0.36 -1.433,-0.9 -1.9,-1.62 -0.453,-0.733 -0.68,-1.647 -0.68,-2.74 v -0.42 h 1.66 v 0.42 c 0,1.16 0.34,2.027 1.02,2.6 0.68,0.56 1.553,0.84 2.62,0.84 1.093,0 1.927,-0.247 2.5,-0.74 0.573,-0.493 0.86,-1.113 0.86,-1.86 0,-0.52 -0.133,-0.933 -0.4,-1.24 -0.253,-0.307 -0.613,-0.553 -1.08,-0.74 -0.467,-0.2 -1.013,-0.373 -1.64,-0.52 l -1.04,-0.26 c -0.813,-0.213 -1.533,-0.473 -2.16,-0.78 -0.627,-0.307 -1.12,-0.707 -1.48,-1.2 -0.347,-0.507 -0.52,-1.153 -0.52,-1.94 0,-0.787 0.193,-1.467 0.58,-2.04 0.4,-0.573 0.953,-1.013 1.66,-1.32 0.72,-0.307 1.547,-0.46 2.48,-0.46 0.947,0 1.793,0.167 2.54,0.5 0.76,0.32 1.353,0.8 1.78,1.44 0.44,0.627 0.66,1.42 0.66,2.38 v 0.84 h -1.66 v -0.84 c 0,-0.68 -0.147,-1.227 -0.44,-1.64 -0.28,-0.413 -0.673,-0.72 -1.18,-0.92 -0.493,-0.2 -1.06,-0.3 -1.7,-0.3 -0.92,0 -1.66,0.207 -2.22,0.62 -0.56,0.4 -0.84,0.973 -0.84,1.72 0,0.493 0.12,0.893 0.36,1.2 0.24,0.307 0.58,0.56 1.02,0.76 0.44,0.187 0.967,0.353 1.58,0.5 l 1.04,0.26 c 0.813,0.173 1.54,0.413 2.18,0.72 0.653,0.293 1.173,0.7 1.56,1.22 0.387,0.507 0.58,1.173 0.58,2 0,0.827 -0.207,1.547 -0.62,2.16 -0.413,0.613 -1,1.093 -1.76,1.44 -0.747,0.333 -1.627,0.5 -2.64,0.5 z m 12.646,0 c -1.734,0 -3.107,-0.48 -4.12,-1.44 -1.014,-0.973 -1.52,-2.36 -1.52,-4.16 v -3.36 c 0,-1.8 0.506,-3.18 1.52,-4.14 1.013,-0.973 2.386,-1.46 4.12,-1.46 1.72,0 3.046,0.473 3.98,1.42 0.946,0.933 1.42,2.22 1.42,3.86 v 0.12 h -2.6 v -0.2 c 0,-0.827 -0.234,-1.507 -0.7,-2.04 -0.454,-0.533 -1.154,-0.8 -2.1,-0.8 -0.934,0 -1.667,0.287 -2.2,0.86 -0.534,0.573 -0.8,1.353 -0.8,2.34 v 3.44 c 0,0.973 0.266,1.753 0.8,2.34 0.533,0.573 1.266,0.86 2.2,0.86 0.946,0 1.646,-0.267 2.1,-0.8 0.466,-0.547 0.7,-1.227 0.7,-2.04 v -0.36 h 2.6 V 241 c 0,1.64 -0.474,2.933 -1.42,3.88 -0.934,0.933 -2.26,1.4 -3.98,1.4 z m 7.151,-0.28 v -2.32 h 1.84 v -9.36 h -1.84 V 232 h 7.2 c 0.853,0 1.593,0.147 2.22,0.44 0.64,0.28 1.133,0.687 1.48,1.22 0.36,0.52 0.54,1.147 0.54,1.88 v 0.2 c 0,0.64 -0.12,1.167 -0.36,1.58 -0.24,0.4 -0.527,0.713 -0.86,0.94 -0.32,0.213 -0.627,0.367 -0.92,0.46 v 0.36 c 0.293,0.08 0.613,0.233 0.96,0.46 0.346,0.213 0.64,0.527 0.88,0.94 0.253,0.413 0.38,0.953 0.38,1.62 v 0.2 c 0,0.773 -0.18,1.44 -0.54,2 -0.36,0.547 -0.86,0.967 -1.5,1.26 -0.627,0.293 -1.36,0.44 -2.2,0.44 z m 4.48,-2.4 h 2.48 c 0.573,0 1.033,-0.14 1.38,-0.42 0.36,-0.28 0.54,-0.68 0.54,-1.2 v -0.2 c 0,-0.52 -0.174,-0.92 -0.52,-1.2 -0.347,-0.28 -0.814,-0.42 -1.4,-0.42 h -2.48 z m 0,-5.84 h 2.44 c 0.546,0 0.993,-0.14 1.34,-0.42 0.36,-0.28 0.54,-0.667 0.54,-1.16 v -0.2 c 0,-0.507 -0.174,-0.893 -0.52,-1.16 -0.347,-0.28 -0.8,-0.42 -1.36,-0.42 h -2.44 z m 9.201,8.24 v -14 h 5.02 l 2.78,12.2 h 0.36 V 232 h 2.6 v 14 h -5.02 l -2.78,-12.2 h -0.36 V 246 Z m 17.118,0 v -12.48 h -4.5 V 232 h 10.68 v 1.52 h -4.5 V 246 Z m 8.318,0 v -14 h 8.62 v 1.52 h -6.94 v 4.68 h 6.38 v 1.52 h -6.38 v 4.76 h 7.04 V 246 Z m 16.33,0.28 c -1.667,0 -2.994,-0.48 -3.98,-1.44 -0.987,-0.973 -1.48,-2.387 -1.48,-4.24 v -3.2 c 0,-1.853 0.493,-3.26 1.48,-4.22 0.986,-0.973 2.313,-1.46 3.98,-1.46 1.653,0 2.92,0.46 3.8,1.38 0.893,0.92 1.34,2.18 1.34,3.78 v 0.1 h -1.66 v -0.16 c 0,-1.053 -0.287,-1.913 -0.86,-2.58 -0.56,-0.68 -1.434,-1.02 -2.62,-1.02 -1.187,0 -2.114,0.367 -2.78,1.1 -0.667,0.72 -1,1.733 -1,3.04 v 3.28 c 0,1.307 0.333,2.327 1,3.06 0.666,0.72 1.593,1.08 2.78,1.08 1.186,0 2.06,-0.333 2.62,-1 0.573,-0.68 0.86,-1.547 0.86,-2.6 v -0.32 h 1.66 v 0.26 c 0,1.6 -0.447,2.86 -1.34,3.78 -0.88,0.92 -2.147,1.38 -3.8,1.38 z m 7.772,-0.28 v -14 h 1.68 v 6.22 h 6.56 V 232 h 1.68 v 14 h -1.68 v -6.26 h -6.56 V 246 Z m 13.125,0 v -14 h 3.26 l 4.88,12.94 h 0.26 V 232 h 1.66 v 14 h -3.26 l -4.86,-12.96 h -0.28 V 246 Z m 18.361,0.28 c -1.667,0 -3,-0.48 -4,-1.44 -0.987,-0.973 -1.48,-2.387 -1.48,-4.24 v -3.2 c 0,-1.853 0.493,-3.26 1.48,-4.22 1,-0.973 2.333,-1.46 4,-1.46 1.68,0 3.013,0.487 4,1.46 1,0.96 1.5,2.367 1.5,4.22 v 3.2 c 0,1.853 -0.5,3.267 -1.5,4.24 -0.987,0.96 -2.32,1.44 -4,1.44 z m 0,-1.5 c 1.213,0 2.153,-0.36 2.82,-1.08 0.667,-0.733 1,-1.747 1,-3.04 v -3.32 c 0,-1.293 -0.333,-2.3 -1,-3.02 -0.667,-0.733 -1.607,-1.1 -2.82,-1.1 -1.2,0 -2.133,0.367 -2.8,1.1 -0.667,0.72 -1,1.727 -1,3.02 v 3.32 c 0,1.293 0.333,2.307 1,3.04 0.667,0.72 1.6,1.08 2.8,1.08 z m 8.299,1.22 v -14 h 1.68 v 12.48 h 7.08 V 246 Z m 15.607,0.28 c -1.666,0 -3,-0.48 -4,-1.44 -0.986,-0.973 -1.48,-2.387 -1.48,-4.24 v -3.2 c 0,-1.853 0.494,-3.26 1.48,-4.22 1,-0.973 2.334,-1.46 4,-1.46 1.68,0 3.014,0.487 4,1.46 1,0.96 1.5,2.367 1.5,4.22 v 3.2 c 0,1.853 -0.5,3.267 -1.5,4.24 -0.986,0.96 -2.32,1.44 -4,1.44 z m 0,-1.5 c 1.214,0 2.154,-0.36 2.82,-1.08 0.667,-0.733 1,-1.747 1,-3.04 v -3.32 c 0,-1.293 -0.333,-2.3 -1,-3.02 -0.666,-0.733 -1.606,-1.1 -2.82,-1.1 -1.2,0 -2.133,0.367 -2.8,1.1 -0.666,0.72 -1,1.727 -1,3.02 v 3.32 c 0,1.293 0.334,2.307 1,3.04 0.667,0.72 1.6,1.08 2.8,1.08 z m 13.179,1.5 c -1.04,0 -1.96,-0.213 -2.76,-0.64 -0.786,-0.44 -1.406,-1.08 -1.86,-1.92 -0.44,-0.84 -0.66,-1.88 -0.66,-3.12 v -3.2 c 0,-1.853 0.494,-3.26 1.48,-4.22 0.987,-0.973 2.314,-1.46 3.98,-1.46 1.654,0 2.914,0.453 3.78,1.36 0.867,0.907 1.3,2.12 1.3,3.64 v 0.1 h -1.66 v -0.14 c 0,-0.667 -0.12,-1.26 -0.36,-1.78 -0.24,-0.52 -0.613,-0.927 -1.12,-1.22 -0.506,-0.307 -1.153,-0.46 -1.94,-0.46 -1.186,0 -2.113,0.367 -2.78,1.1 -0.666,0.72 -1,1.733 -1,3.04 v 3.28 c 0,1.307 0.334,2.327 1,3.06 0.667,0.72 1.6,1.08 2.8,1.08 1.174,0 2.034,-0.333 2.58,-1 0.56,-0.667 0.84,-1.553 0.84,-2.66 v -0.34 h -4.24 v -1.44 h 5.88 V 246 h -1.52 v -1.52 h -0.28 c -0.146,0.293 -0.353,0.58 -0.62,0.86 -0.266,0.28 -0.626,0.507 -1.08,0.68 -0.453,0.173 -1.04,0.26 -1.76,0.26 z m 8.323,-0.28 v -14 h 1.68 v 14 z m 4.883,0 v -14 h 8.62 v 1.52 h -6.94 v 4.68 h 6.38 v 1.52 h -6.38 v 4.76 h 7.04 V 246 Z m 15.93,0.28 c -1.014,0 -1.92,-0.18 -2.72,-0.54 -0.8,-0.36 -1.434,-0.9 -1.9,-1.62 -0.454,-0.733 -0.68,-1.647 -0.68,-2.74 v -0.42 h 1.66 v 0.42 c 0,1.16 0.34,2.027 1.02,2.6 0.68,0.56 1.553,0.84 2.62,0.84 1.093,0 1.926,-0.247 2.5,-0.74 0.573,-0.493 0.86,-1.113 0.86,-1.86 0,-0.52 -0.134,-0.933 -0.4,-1.24 -0.254,-0.307 -0.614,-0.553 -1.08,-0.74 -0.467,-0.2 -1.014,-0.373 -1.64,-0.52 l -1.04,-0.26 c -0.814,-0.213 -1.534,-0.473 -2.16,-0.78 -0.627,-0.307 -1.12,-0.707 -1.48,-1.2 -0.347,-0.507 -0.52,-1.153 -0.52,-1.94 0,-0.787 0.193,-1.467 0.58,-2.04 0.4,-0.573 0.953,-1.013 1.66,-1.32 0.72,-0.307 1.546,-0.46 2.48,-0.46 0.946,0 1.793,0.167 2.54,0.5 0.76,0.32 1.353,0.8 1.78,1.44 0.44,0.627 0.66,1.42 0.66,2.38 v 0.84 h -1.66 v -0.84 c 0,-0.68 -0.147,-1.227 -0.44,-1.64 -0.28,-0.413 -0.674,-0.72 -1.18,-0.92 -0.494,-0.2 -1.06,-0.3 -1.7,-0.3 -0.92,0 -1.66,0.207 -2.22,0.62 -0.56,0.4 -0.84,0.973 -0.84,1.72 0,0.493 0.12,0.893 0.36,1.2 0.24,0.307 0.58,0.56 1.02,0.76 0.44,0.187 0.966,0.353 1.58,0.5 l 1.04,0.26 c 0.813,0.173 1.54,0.413 2.18,0.72 0.653,0.293 1.173,0.7 1.56,1.22 0.386,0.507 0.58,1.173 0.58,2 0,0.827 -0.207,1.547 -0.62,2.16 -0.414,0.613 -1,1.093 -1.76,1.44 -0.747,0.333 -1.627,0.5 -2.64,0.5 z m 12.645,0 c -1.733,0 -3.106,-0.48 -4.12,-1.44 -1.013,-0.973 -1.52,-2.36 -1.52,-4.16 v -3.36 c 0,-1.8 0.507,-3.18 1.52,-4.14 1.014,-0.973 2.387,-1.46 4.12,-1.46 1.72,0 3.047,0.473 3.98,1.42 0.947,0.933 1.42,2.22 1.42,3.86 v 0.12 h -2.6 v -0.2 c 0,-0.827 -0.233,-1.507 -0.7,-2.04 -0.453,-0.533 -1.153,-0.8 -2.1,-0.8 -0.933,0 -1.666,0.287 -2.2,0.86 -0.533,0.573 -0.8,1.353 -0.8,2.34 v 3.44 c 0,0.973 0.267,1.753 0.8,2.34 0.534,0.573 1.267,0.86 2.2,0.86 0.947,0 1.647,-0.267 2.1,-0.8 0.467,-0.547 0.7,-1.227 0.7,-2.04 v -0.36 h 2.6 V 241 c 0,1.64 -0.473,2.933 -1.42,3.88 -0.933,0.933 -2.26,1.4 -3.98,1.4 z m 7.151,-0.28 v -2.32 h 1.84 v -9.36 h -1.84 V 232 h 7.2 c 0.854,0 1.594,0.147 2.22,0.44 0.64,0.28 1.134,0.687 1.48,1.22 0.36,0.52 0.54,1.147 0.54,1.88 v 0.2 c 0,0.64 -0.12,1.167 -0.36,1.58 -0.24,0.4 -0.526,0.713 -0.86,0.94 -0.32,0.213 -0.626,0.367 -0.92,0.46 v 0.36 c 0.294,0.08 0.614,0.233 0.96,0.46 0.347,0.213 0.64,0.527 0.88,0.94 0.254,0.413 0.38,0.953 0.38,1.62 v 0.2 c 0,0.773 -0.18,1.44 -0.54,2 -0.36,0.547 -0.86,0.967 -1.5,1.26 -0.626,0.293 -1.36,0.44 -2.2,0.44 z m 4.48,-2.4 h 2.48 c 0.574,0 1.034,-0.14 1.38,-0.42 0.36,-0.28 0.54,-0.68 0.54,-1.2 v -0.2 c 0,-0.52 -0.173,-0.92 -0.52,-1.2 -0.346,-0.28 -0.813,-0.42 -1.4,-0.42 h -2.48 z m 0,-5.84 h 2.44 c 0.547,0 0.994,-0.14 1.34,-0.42 0.36,-0.28 0.54,-0.667 0.54,-1.16 v -0.2 c 0,-0.507 -0.173,-0.893 -0.52,-1.16 -0.346,-0.28 -0.8,-0.42 -1.36,-0.42 h -2.44 z m 9.202,8.24 v -14 h 5.02 l 2.78,12.2 h 0.36 V 232 h 2.6 v 14 h -5.02 l -2.78,-12.2 h -0.36 V 246 Z m 17.118,0 v -12.48 h -4.5 V 232 h 10.68 v 1.52 h -4.5 V 246 Z m 8.318,0 v -14 h 8.62 v 1.52 h -6.94 v 4.68 h 6.38 v 1.52 h -6.38 v 4.76 h 7.04 V 246 Z m 16.329,0.28 c -1.666,0 -2.993,-0.48 -3.98,-1.44 -0.986,-0.973 -1.48,-2.387 -1.48,-4.24 v -3.2 c 0,-1.853 0.494,-3.26 1.48,-4.22 0.987,-0.973 2.314,-1.46 3.98,-1.46 1.654,0 2.92,0.46 3.8,1.38 0.894,0.92 1.34,2.18 1.34,3.78 v 0.1 h -1.66 v -0.16 c 0,-1.053 -0.286,-1.913 -0.86,-2.58 -0.56,-0.68 -1.433,-1.02 -2.62,-1.02 -1.186,0 -2.113,0.367 -2.78,1.1 -0.666,0.72 -1,1.733 -1,3.04 v 3.28 c 0,1.307 0.334,2.327 1,3.06 0.667,0.72 1.594,1.08 2.78,1.08 1.187,0 2.06,-0.333 2.62,-1 0.574,-0.68 0.86,-1.547 0.86,-2.6 v -0.32 h 1.66 v 0.26 c 0,1.6 -0.446,2.86 -1.34,3.78 -0.88,0.92 -2.146,1.38 -3.8,1.38 z m 7.772,-0.28 v -14 h 1.68 v 6.22 h 6.56 V 232 h 1.68 v 14 h -1.68 v -6.26 h -6.56 V 246 Z m 13.125,0 v -14 h 3.26 l 4.882,12.94 h 0.26 V 232 h 1.66 v 14 h -3.26 l -4.862,-12.96 h -0.28 V 246 Z m 18.362,0.28 c -1.67,0 -3,-0.48 -4,-1.44 -0.99,-0.973 -1.48,-2.387 -1.48,-4.24 v -3.2 c 0,-1.853 0.49,-3.26 1.48,-4.22 1,-0.973 2.33,-1.46 4,-1.46 1.68,0 3.01,0.487 4,1.46 1,0.96 1.5,2.367 1.5,4.22 v 3.2 c 0,1.853 -0.5,3.267 -1.5,4.24 -0.99,0.96 -2.32,1.44 -4,1.44 z m 0,-1.5 c 1.21,0 2.15,-0.36 2.82,-1.08 0.67,-0.733 1,-1.747 1,-3.04 v -3.32 c 0,-1.293 -0.33,-2.3 -1,-3.02 -0.67,-0.733 -1.61,-1.1 -2.82,-1.1 -1.2,0 -2.13,0.367 -2.8,1.1 -0.67,0.72 -1,1.727 -1,3.02 v 3.32 c 0,1.293 0.33,2.307 1,3.04 0.67,0.72 1.6,1.08 2.8,1.08 z m 8.3,1.22 v -14 h 1.68 v 12.48 h 7.08 V 246 Z m 15.61,0.28 c -1.67,0 -3,-0.48 -4,-1.44 -0.99,-0.973 -1.48,-2.387 -1.48,-4.24 v -3.2 c 0,-1.853 0.49,-3.26 1.48,-4.22 1,-0.973 2.33,-1.46 4,-1.46 1.68,0 3.01,0.487 4,1.46 1,0.96 1.5,2.367 1.5,4.22 v 3.2 c 0,1.853 -0.5,3.267 -1.5,4.24 -0.99,0.96 -2.32,1.44 -4,1.44 z m 0,-1.5 c 1.21,0 2.15,-0.36 2.82,-1.08 0.66,-0.733 1,-1.747 1,-3.04 v -3.32 c 0,-1.293 -0.34,-2.3 -1,-3.02 -0.67,-0.733 -1.61,-1.1 -2.82,-1.1 -1.2,0 -2.14,0.367 -2.8,1.1 -0.67,0.72 -1,1.727 -1,3.02 v 3.32 c 0,1.293 0.33,2.307 1,3.04 0.66,0.72 1.6,1.08 2.8,1.08 z m 13.17,1.5 c -1.04,0 -1.96,-0.213 -2.76,-0.64 -0.78,-0.44 -1.4,-1.08 -1.86,-1.92 -0.44,-0.84 -0.66,-1.88 -0.66,-3.12 v -3.2 c 0,-1.853 0.5,-3.26 1.48,-4.22 0.99,-0.973 2.32,-1.46 3.98,-1.46 1.66,0 2.92,0.453 3.78,1.36 0.87,0.907 1.3,2.12 1.3,3.64 v 0.1 h -1.66 v -0.14 c 0,-0.667 -0.12,-1.26 -0.36,-1.78 -0.24,-0.52 -0.61,-0.927 -1.12,-1.22 -0.5,-0.307 -1.15,-0.46 -1.94,-0.46 -1.18,0 -2.11,0.367 -2.78,1.1 -0.66,0.72 -1,1.733 -1,3.04 v 3.28 c 0,1.307 0.34,2.327 1,3.06 0.67,0.72 1.6,1.08 2.8,1.08 1.18,0 2.04,-0.333 2.58,-1 0.56,-0.667 0.84,-1.553 0.84,-2.66 v -0.34 h -4.24 v -1.44 h 5.88 V 246 h -1.52 v -1.52 h -0.28 c -0.14,0.293 -0.35,0.58 -0.62,0.86 -0.26,0.28 -0.62,0.507 -1.08,0.68 -0.45,0.173 -1.04,0.26 -1.76,0.26 z m 8.33,-0.28 v -14 h 1.68 v 14 z m 4.88,0 v -14 h 8.62 v 1.52 h -6.94 v 4.68 h 6.38 v 1.52 h -6.38 v 4.76 h 7.04 V 246 Z m 15.93,0.28 c -1.01,0 -1.92,-0.18 -2.72,-0.54 -0.8,-0.36 -1.43,-0.9 -1.9,-1.62 -0.45,-0.733 -0.68,-1.647 -0.68,-2.74 v -0.42 h 1.66 v 0.42 c 0,1.16 0.34,2.027 1.02,2.6 0.68,0.56 1.55,0.84 2.62,0.84 1.09,0 1.93,-0.247 2.5,-0.74 0.57,-0.493 0.86,-1.113 0.86,-1.86 0,-0.52 -0.13,-0.933 -0.4,-1.24 -0.25,-0.307 -0.61,-0.553 -1.08,-0.74 -0.47,-0.2 -1.01,-0.373 -1.64,-0.52 l -1.04,-0.26 c -0.81,-0.213 -1.53,-0.473 -2.16,-0.78 -0.63,-0.307 -1.12,-0.707 -1.48,-1.2 -0.35,-0.507 -0.52,-1.153 -0.52,-1.94 0,-0.787 0.19,-1.467 0.58,-2.04 0.4,-0.573 0.95,-1.013 1.66,-1.32 0.72,-0.307 1.55,-0.46 2.48,-0.46 0.95,0 1.79,0.167 2.54,0.5 0.76,0.32 1.35,0.8 1.78,1.44 0.44,0.627 0.66,1.42 0.66,2.38 v 0.84 h -1.66 v -0.84 c 0,-0.68 -0.15,-1.227 -0.44,-1.64 -0.28,-0.413 -0.67,-0.72 -1.18,-0.92 -0.49,-0.2 -1.06,-0.3 -1.7,-0.3 -0.92,0 -1.66,0.207 -2.22,0.62 -0.56,0.4 -0.84,0.973 -0.84,1.72 0,0.493 0.12,0.893 0.36,1.2 0.24,0.307 0.58,0.56 1.02,0.76 0.44,0.187 0.97,0.353 1.58,0.5 l 1.04,0.26 c 0.81,0.173 1.54,0.413 2.18,0.72 0.65,0.293 1.17,0.7 1.56,1.22 0.39,0.507 0.58,1.173 0.58,2 0,0.827 -0.21,1.547 -0.62,2.16 -0.41,0.613 -1,1.093 -1.76,1.44 -0.75,0.333 -1.63,0.5 -2.64,0.5 z m 12.65,0 c -1.74,0 -3.11,-0.48 -4.12,-1.44 -1.02,-0.973 -1.52,-2.36 -1.52,-4.16 v -3.36 c 0,-1.8 0.5,-3.18 1.52,-4.14 1.01,-0.973 2.38,-1.46 4.12,-1.46 1.72,0 3.04,0.473 3.98,1.42 0.94,0.933 1.42,2.22 1.42,3.86 v 0.12 h -2.6 v -0.2 c 0,-0.827 -0.24,-1.507 -0.7,-2.04 -0.46,-0.533 -1.16,-0.8 -2.1,-0.8 -0.94,0 -1.67,0.287 -2.2,0.86 -0.54,0.573 -0.8,1.353 -0.8,2.34 v 3.44 c 0,0.973 0.26,1.753 0.8,2.34 0.53,0.573 1.26,0.86 2.2,0.86 0.94,0 1.64,-0.267 2.1,-0.8 0.46,-0.547 0.7,-1.227 0.7,-2.04 v -0.36 h 2.6 V 241 c 0,1.64 -0.48,2.933 -1.42,3.88 -0.94,0.933 -2.26,1.4 -3.98,1.4 z m 7.15,-0.28 v -2.32 h 1.84 v -9.36 h -1.84 V 232 h 7.2 c 0.85,0 1.59,0.147 2.22,0.44 0.64,0.28 1.13,0.687 1.48,1.22 0.36,0.52 0.54,1.147 0.54,1.88 v 0.2 c 0,0.64 -0.12,1.167 -0.36,1.58 -0.24,0.4 -0.53,0.713 -0.86,0.94 -0.32,0.213 -0.63,0.367 -0.92,0.46 v 0.36 c 0.29,0.08 0.61,0.233 0.96,0.46 0.34,0.213 0.64,0.527 0.88,0.94 0.25,0.413 0.38,0.953 0.38,1.62 v 0.2 c 0,0.773 -0.18,1.44 -0.54,2 -0.36,0.547 -0.86,0.967 -1.5,1.26 -0.63,0.293 -1.36,0.44 -2.2,0.44 z m 4.48,-2.4 h 2.48 c 0.57,0 1.03,-0.14 1.38,-0.42 0.36,-0.28 0.54,-0.68 0.54,-1.2 v -0.2 c 0,-0.52 -0.18,-0.92 -0.52,-1.2 -0.35,-0.28 -0.82,-0.42 -1.4,-0.42 h -2.48 z m 0,-5.84 h 2.44 c 0.54,0 0.99,-0.14 1.34,-0.42 0.36,-0.28 0.54,-0.667 0.54,-1.16 v -0.2 c 0,-0.507 -0.18,-0.893 -0.52,-1.16 -0.35,-0.28 -0.8,-0.42 -1.36,-0.42 h -2.44 z m 9.2,8.24 v -14 h 5.02 l 2.78,12.2 h 0.36 V 232 h 2.6 v 14 h -5.02 l -2.78,-12.2 h -0.36 V 246 Z m 17.12,0 v -12.48 h -4.5 V 232 h 10.68 v 1.52 h -4.5 V 246 Z m 8.31,0 v -14 h 8.62 v 1.52 h -6.94 v 4.68 h 6.38 v 1.52 h -6.38 v 4.76 h 7.04 V 246 Z m 16.33,0.28 c -1.66,0 -2.99,-0.48 -3.98,-1.44 -0.98,-0.973 -1.48,-2.387 -1.48,-4.24 v -3.2 c 0,-1.853 0.5,-3.26 1.48,-4.22 0.99,-0.973 2.32,-1.46 3.98,-1.46 1.66,0 2.92,0.46 3.8,1.38 0.9,0.92 1.34,2.18 1.34,3.78 v 0.1 h -1.66 v -0.16 c 0,-1.053 -0.28,-1.913 -0.86,-2.58 -0.56,-0.68 -1.43,-1.02 -2.62,-1.02 -1.18,0 -2.11,0.367 -2.78,1.1 -0.66,0.72 -1,1.733 -1,3.04 v 3.28 c 0,1.307 0.34,2.327 1,3.06 0.67,0.72 1.6,1.08 2.78,1.08 1.19,0 2.06,-0.333 2.62,-1 0.58,-0.68 0.86,-1.547 0.86,-2.6 v -0.32 h 1.66 v 0.26 c 0,1.6 -0.44,2.86 -1.34,3.78 -0.88,0.92 -2.14,1.38 -3.8,1.38 z m 7.78,-0.28 v -14 h 1.68 v 6.22 h 6.56 V 232 h 1.68 v 14 h -1.68 v -6.26 h -6.56 V 246 Z m 13.12,0 v -14 h 3.26 l 4.88,12.94 h 0.26 V 232 h 1.66 v 14 h -3.26 l -4.86,-12.96 h -0.28 V 246 Z m 18.36,0.28 c -1.66,0 -3,-0.48 -4,-1.44 -0.98,-0.973 -1.48,-2.387 -1.48,-4.24 v -3.2 c 0,-1.853 0.5,-3.26 1.48,-4.22 1,-0.973 2.34,-1.46 4,-1.46 1.68,0 3.02,0.487 4,1.46 1,0.96 1.5,2.367 1.5,4.22 v 3.2 c 0,1.853 -0.5,3.267 -1.5,4.24 -0.98,0.96 -2.32,1.44 -4,1.44 z m 0,-1.5 c 1.22,0 2.16,-0.36 2.82,-1.08 0.67,-0.733 1,-1.747 1,-3.04 v -3.32 c 0,-1.293 -0.33,-2.3 -1,-3.02 -0.66,-0.733 -1.6,-1.1 -2.82,-1.1 -1.2,0 -2.13,0.367 -2.8,1.1 -0.66,0.72 -1,1.727 -1,3.02 v 3.32 c 0,1.293 0.34,2.307 1,3.04 0.67,0.72 1.6,1.08 2.8,1.08 z m 8.3,1.22 v -14 h 1.68 v 12.48 h 7.08 V 246 Z m 15.61,0.28 c -1.67,0 -3,-0.48 -4,-1.44 -0.99,-0.973 -1.48,-2.387 -1.48,-4.24 v -3.2 c 0,-1.853 0.49,-3.26 1.48,-4.22 1,-0.973 2.33,-1.46 4,-1.46 1.68,0 3.01,0.487 4,1.46 1,0.96 1.5,2.367 1.5,4.22 v 3.2 c 0,1.853 -0.5,3.267 -1.5,4.24 -0.99,0.96 -2.32,1.44 -4,1.44 z m 0,-1.5 c 1.21,0 2.15,-0.36 2.82,-1.08 0.67,-0.733 1,-1.747 1,-3.04 v -3.32 c 0,-1.293 -0.33,-2.3 -1,-3.02 -0.67,-0.733 -1.61,-1.1 -2.82,-1.1 -1.2,0 -2.13,0.367 -2.8,1.1 -0.67,0.72 -1,1.727 -1,3.02 v 3.32 c 0,1.293 0.33,2.307 1,3.04 0.67,0.72 1.6,1.08 2.8,1.08 z m 13.18,1.5 c -1.04,0 -1.96,-0.213 -2.76,-0.64 -0.79,-0.44 -1.41,-1.08 -1.86,-1.92 -0.44,-0.84 -0.66,-1.88 -0.66,-3.12 v -3.2 c 0,-1.853 0.49,-3.26 1.48,-4.22 0.98,-0.973 2.31,-1.46 3.98,-1.46 1.65,0 2.91,0.453 3.78,1.36 0.86,0.907 1.3,2.12 1.3,3.64 v 0.1 h -1.66 v -0.14 c 0,-0.667 -0.12,-1.26 -0.36,-1.78 -0.24,-0.52 -0.62,-0.927 -1.12,-1.22 -0.51,-0.307 -1.16,-0.46 -1.94,-0.46 -1.19,0 -2.12,0.367 -2.78,1.1 -0.67,0.72 -1,1.733 -1,3.04 v 3.28 c 0,1.307 0.33,2.327 1,3.06 0.66,0.72 1.6,1.08 2.8,1.08 1.17,0 2.03,-0.333 2.58,-1 0.56,-0.667 0.84,-1.553 0.84,-2.66 v -0.34 h -4.24 v -1.44 h 5.88 V 246 h -1.52 v -1.52 h -0.28 c -0.15,0.293 -0.36,0.58 -0.62,0.86 -0.27,0.28 -0.63,0.507 -1.08,0.68 -0.46,0.173 -1.04,0.26 -1.76,0.26 z m 8.32,-0.28 v -14 h 1.68 v 14 z m 4.88,0 v -14 h 8.62 v 1.52 h -6.94 v 4.68 h 6.38 v 1.52 h -6.38 v 4.76 h 7.04 V 246 Z m 15.93,0.28 c -1.01,0 -1.92,-0.18 -2.72,-0.54 -0.8,-0.36 -1.43,-0.9 -1.9,-1.62 -0.45,-0.733 -0.68,-1.647 -0.68,-2.74 v -0.42 h 1.66 v 0.42 c 0,1.16 0.34,2.027 1.02,2.6 0.68,0.56 1.56,0.84 2.62,0.84 1.1,0 1.93,-0.247 2.5,-0.74 0.58,-0.493 0.86,-1.113 0.86,-1.86 0,-0.52 -0.13,-0.933 -0.4,-1.24 -0.25,-0.307 -0.61,-0.553 -1.08,-0.74 -0.46,-0.2 -1.01,-0.373 -1.64,-0.52 l -1.04,-0.26 c -0.81,-0.213 -1.53,-0.473 -2.16,-0.78 -0.62,-0.307 -1.12,-0.707 -1.48,-1.2 -0.34,-0.507 -0.52,-1.153 -0.52,-1.94 0,-0.787 0.2,-1.467 0.58,-2.04 0.4,-0.573 0.96,-1.013 1.66,-1.32 0.72,-0.307 1.55,-0.46 2.48,-0.46 0.95,0 1.8,0.167 2.54,0.5 0.76,0.32 1.36,0.8 1.78,1.44 0.44,0.627 0.66,1.42 0.66,2.38 v 0.84 h -1.66 v -0.84 c 0,-0.68 -0.14,-1.227 -0.44,-1.64 -0.28,-0.413 -0.67,-0.72 -1.18,-0.92 -0.49,-0.2 -1.06,-0.3 -1.7,-0.3 -0.92,0 -1.66,0.207 -2.22,0.62 -0.56,0.4 -0.84,0.973 -0.84,1.72 0,0.493 0.12,0.893 0.36,1.2 0.24,0.307 0.58,0.56 1.02,0.76 0.44,0.187 0.97,0.353 1.58,0.5 l 1.04,0.26 c 0.82,0.173 1.54,0.413 2.18,0.72 0.66,0.293 1.18,0.7 1.56,1.22 0.39,0.507 0.58,1.173 0.58,2 0,0.827 -0.2,1.547 -0.62,2.16 -0.41,0.613 -1,1.093 -1.76,1.44 -0.74,0.333 -1.62,0.5 -2.64,0.5 z m 12.65,0 c -1.73,0 -3.11,-0.48 -4.12,-1.44 -1.01,-0.973 -1.52,-2.36 -1.52,-4.16 v -3.36 c 0,-1.8 0.51,-3.18 1.52,-4.14 1.01,-0.973 2.39,-1.46 4.12,-1.46 1.72,0 3.05,0.473 3.98,1.42 0.95,0.933 1.42,2.22 1.42,3.86 v 0.12 h -2.6 v -0.2 c 0,-0.827 -0.23,-1.507 -0.7,-2.04 -0.45,-0.533 -1.15,-0.8 -2.1,-0.8 -0.93,0 -1.67,0.287 -2.2,0.86 -0.53,0.573 -0.8,1.353 -0.8,2.34 v 3.44 c 0,0.973 0.27,1.753 0.8,2.34 0.53,0.573 1.27,0.86 2.2,0.86 0.95,0 1.65,-0.267 2.1,-0.8 0.47,-0.547 0.7,-1.227 0.7,-2.04 v -0.36 h 2.6 V 241 c 0,1.64 -0.47,2.933 -1.42,3.88 -0.93,0.933 -2.26,1.4 -3.98,1.4 z m 7.15,-0.28 v -2.32 h 1.84 v -9.36 h -1.84 V 232 h 7.2 c 0.85,0 1.59,0.147 2.22,0.44 0.64,0.28 1.13,0.687 1.48,1.22 0.36,0.52 0.54,1.147 0.54,1.88 v 0.2 c 0,0.64 -0.12,1.167 -0.36,1.58 -0.24,0.4 -0.53,0.713 -0.86,0.94 -0.32,0.213 -0.63,0.367 -0.92,0.46 v 0.36 c 0.29,0.08 0.61,0.233 0.96,0.46 0.35,0.213 0.64,0.527 0.88,0.94 0.25,0.413 0.38,0.953 0.38,1.62 v 0.2 c 0,0.773 -0.18,1.44 -0.54,2 -0.36,0.547 -0.86,0.967 -1.5,1.26 -0.63,0.293 -1.36,0.44 -2.2,0.44 z m 4.48,-2.4 h 2.48 c 0.57,0 1.03,-0.14 1.38,-0.42 0.36,-0.28 0.54,-0.68 0.54,-1.2 v -0.2 c 0,-0.52 -0.17,-0.92 -0.52,-1.2 -0.35,-0.28 -0.81,-0.42 -1.4,-0.42 h -2.48 z m 0,-5.84 h 2.44 c 0.55,0 0.99,-0.14 1.34,-0.42 0.36,-0.28 0.54,-0.667 0.54,-1.16 v -0.2 c 0,-0.507 -0.17,-0.893 -0.52,-1.16 -0.35,-0.28 -0.8,-0.42 -1.36,-0.42 h -2.44 z m 9.2,8.24 v -14 h 5.02 l 2.78,12.2 h 0.36 V 232 h 2.6 v 14 h -5.02 l -2.78,-12.2 h -0.36 V 246 Z m 17.12,0 v -12.48 h -4.5 V 232 h 10.68 v 1.52 h -4.5 V 246 Z m 8.32,0 v -14 h 8.62 v 1.52 h -6.94 v 4.68 h 6.38 v 1.52 h -6.38 v 4.76 h 7.04 V 246 Z m 16.33,0.28 c -1.67,0 -3,-0.48 -3.98,-1.44 -0.99,-0.973 -1.48,-2.387 -1.48,-4.24 v -3.2 c 0,-1.853 0.49,-3.26 1.48,-4.22 0.98,-0.973 2.31,-1.46 3.98,-1.46 1.65,0 2.92,0.46 3.8,1.38 0.89,0.92 1.34,2.18 1.34,3.78 v 0.1 h -1.66 v -0.16 c 0,-1.053 -0.29,-1.913 -0.86,-2.58 -0.56,-0.68 -1.44,-1.02 -2.62,-1.02 -1.19,0 -2.12,0.367 -2.78,1.1 -0.67,0.72 -1,1.733 -1,3.04 v 3.28 c 0,1.307 0.33,2.327 1,3.06 0.66,0.72 1.59,1.08 2.78,1.08 1.18,0 2.06,-0.333 2.62,-1 0.57,-0.68 0.86,-1.547 0.86,-2.6 v -0.32 h 1.66 v 0.26 c 0,1.6 -0.45,2.86 -1.34,3.78 -0.88,0.92 -2.15,1.38 -3.8,1.38 z m 7.77,-0.28 v -14 h 1.68 v 6.22 h 6.56 V 232 h 1.68 v 14 h -1.68 v -6.26 h -6.56 V 246 Z m 13.12,0 v -14 h 3.26 l 4.88,12.94 h 0.26 V 232 h 1.66 v 14 h -3.26 l -4.86,-12.96 h -0.28 V 246 Z m 18.37,0.28 c -1.67,0 -3,-0.48 -4,-1.44 -0.99,-0.973 -1.48,-2.387 -1.48,-4.24 v -3.2 c 0,-1.853 0.49,-3.26 1.48,-4.22 1,-0.973 2.33,-1.46 4,-1.46 1.68,0 3.01,0.487 4,1.46 1,0.96 1.5,2.367 1.5,4.22 v 3.2 c 0,1.853 -0.5,3.267 -1.5,4.24 -0.99,0.96 -2.32,1.44 -4,1.44 z m 0,-1.5 c 1.21,0 2.15,-0.36 2.82,-1.08 0.66,-0.733 1,-1.747 1,-3.04 v -3.32 c 0,-1.293 -0.34,-2.3 -1,-3.02 -0.67,-0.733 -1.61,-1.1 -2.82,-1.1 -1.2,0 -2.14,0.367 -2.8,1.1 -0.67,0.72 -1,1.727 -1,3.02 v 3.32 c 0,1.293 0.33,2.307 1,3.04 0.66,0.72 1.6,1.08 2.8,1.08 z"
     fill="#008dca"
     id="path7" />
  <rect
     y="521"
     width="1366"
     height="400"
     fill="#c5b6f0"
     id="rect7"
     x="0" />
  <path
     d="m 0,286.324 c 50.592,10.743 101.186,21.484 151.778,3.913 50.592,-17.571 101.184,-63.458 151.779,-82.163 50.592,-18.704 101.184,-10.23 151.776,0 50.594,10.231 101.186,22.217 151.778,19.562 50.592,-2.653 101.186,-19.949 151.778,-7.824 50.592,12.125 101.184,53.668 151.778,54.774 50.592,1.108 101.183,-38.224 151.773,-39.124 50.6,-0.899 101.19,36.633 151.78,43.037 50.59,6.405 101.19,-18.315 151.78,-43.037 v 285.612 c -50.59,0 -101.19,0 -151.78,0 -50.59,0 -101.18,0 -151.78,0 -50.59,0 -101.181,0 -151.773,0 -50.594,0 -101.186,0 -151.778,0 -50.592,0 -101.186,0 -151.778,0 -50.592,0 -101.184,0 -151.778,0 -50.592,0 -101.184,0 -151.776,0 -50.595,0 -101.187,0 -151.779,0 -50.592,0 -101.186,0 -151.778,0 z"
     fill="#202046"
     id="path8" />
  <path
     d="m 0,286.324 c 50.592,10.743 101.186,21.484 151.778,3.913 50.592,-17.571 101.184,-63.458 151.779,-82.163 50.592,-18.704 101.184,-10.23 151.776,0 50.594,10.231 101.186,22.217 151.778,19.562 50.592,-2.653 101.186,-19.949 151.778,-7.824 50.592,12.125 101.184,53.668 151.778,54.774 50.592,1.108 101.183,-38.224 151.773,-39.124 50.6,-0.899 101.19,36.633 151.78,43.037 50.59,6.405 101.19,-18.315 151.78,-43.037"
     stroke="#dc36df"
     stroke-width="2"
     id="path9" />
  <path
     d="m 0,290.237 c 50.592,-12.264 101.186,-24.529 151.778,-11.738 50.592,12.791 101.184,50.636 151.779,62.601 50.592,11.963 101.184,-1.955 151.776,-7.826 50.594,-5.87 101.186,-3.692 151.778,-3.912 50.592,-0.221 101.186,-2.836 151.778,0 50.592,2.837 101.184,11.126 151.778,0 50.592,-11.127 101.183,-41.669 151.773,-50.863 50.6,-9.193 101.19,2.963 151.78,11.738 50.59,8.775 101.19,14.168 151.78,19.562 v 211.275 c -50.59,0 -101.19,0 -151.78,0 -50.59,0 -101.18,0 -151.78,0 -50.59,0 -101.181,0 -151.773,0 -50.594,0 -101.186,0 -151.778,0 -50.592,0 -101.186,0 -151.778,0 -50.592,0 -101.184,0 -151.778,0 -50.592,0 -101.184,0 -151.776,0 -50.595,0 -101.187,0 -151.779,0 -50.592,0 -101.186,0 -151.778,0 z"
     fill="#353566"
     id="path10" />
  <path
     d="m 0,290.237 c 50.592,-12.264 101.186,-24.529 151.778,-11.738 50.592,12.791 101.184,50.636 151.779,62.601 50.592,11.963 101.184,-1.955 151.776,-7.826 50.594,-5.87 101.186,-3.692 151.778,-3.912 50.592,-0.221 101.186,-2.836 151.778,0 50.592,2.837 101.184,11.126 151.778,0 50.592,-11.127 101.183,-41.669 151.773,-50.863 50.6,-9.193 101.19,2.963 151.78,11.738 50.59,8.775 101.19,14.168 151.78,19.562"
     stroke="#dc36df"
     stroke-width="2"
     id="path11" />
  <path
     d="m 0,360.662 c 50.592,-31.88 101.186,-63.761 151.778,-50.863 50.592,12.897 101.184,70.574 151.779,82.162 50.592,11.59 101.184,-22.904 151.776,-43.037 50.594,-20.133 101.186,-25.901 151.778,-23.475 50.592,2.426 101.186,13.046 151.778,23.475 50.592,10.429 101.184,20.663 151.778,11.738 50.592,-8.926 101.183,-37.014 151.773,-50.863 50.6,-13.848 101.19,-13.459 151.78,-11.738 50.59,1.721 101.19,4.774 151.78,7.826 v 215.187 c -50.59,0 -101.19,0 -151.78,0 -50.59,0 -101.18,0 -151.78,0 -50.59,0 -101.181,0 -151.773,0 -50.594,0 -101.186,0 -151.778,0 -50.592,0 -101.186,0 -151.778,0 -50.592,0 -101.184,0 -151.778,0 -50.592,0 -101.184,0 -151.776,0 -50.595,0 -101.187,0 -151.779,0 -50.592,0 -101.186,0 -151.778,0 z"
     fill="#c5b6f0"
     id="path12"
     style="fill-rule:nonzero" />
  <path
     d="m 0,360.662 c 50.592,-31.88 101.186,-63.761 151.778,-50.863 50.592,12.897 101.184,70.574 151.779,82.162 50.592,11.59 101.184,-22.904 151.776,-43.037 50.594,-20.133 101.186,-25.901 151.778,-23.475 50.592,2.426 101.186,13.046 151.778,23.475 50.592,10.429 101.184,20.663 151.778,11.738 50.592,-8.926 101.183,-37.014 151.773,-50.863 50.6,-13.848 101.19,-13.459 151.78,-11.738 50.59,1.721 101.19,4.774 151.78,7.826"
     stroke="#dc36df"
     stroke-width="2"
     id="path13" />
  <path
     d="m 1366,1168.75 c -50.59,-10.74 -101.19,-21.48 -151.78,-3.91 -50.59,17.57 -101.18,63.45 -151.78,82.16 -50.59,18.7 -101.181,10.23 -151.773,0 -50.594,-10.23 -101.186,-22.22 -151.778,-19.56 -50.592,2.65 -101.186,19.95 -151.778,7.82 -50.592,-12.12 -101.184,-53.67 -151.778,-54.77 -50.592,-1.11 -101.184,38.22 -151.776,39.12 -50.595,0.9 -101.187,-36.63 -151.779,-43.04 C 101.186,1170.17 50.5919,1194.89 0,1219.61 V 934 c 50.5919,0 101.186,0 151.778,0 50.592,0 101.184,0 151.779,0 50.592,0 101.184,0 151.776,0 50.594,0 101.186,0 151.778,0 50.592,0 101.186,0 151.778,0 50.592,0 101.184,0 151.778,0 50.592,0 101.183,0 151.773,0 50.6,0 101.19,0 151.78,0 50.59,0 101.19,0 151.78,0 z"
     fill="#202046"
     id="path14" />
  <path
     d="m 1366,1168.75 c -50.59,-10.74 -101.19,-21.48 -151.78,-3.91 -50.59,17.57 -101.18,63.45 -151.78,82.16 -50.59,18.7 -101.181,10.23 -151.773,0 -50.594,-10.23 -101.186,-22.22 -151.778,-19.56 -50.592,2.65 -101.186,19.95 -151.778,7.82 -50.592,-12.12 -101.184,-53.67 -151.778,-54.77 -50.592,-1.11 -101.184,38.22 -151.776,39.12 -50.595,0.9 -101.187,-36.63 -151.779,-43.04 -50.592,-6.4 -101.1861,18.32 -151.7780462532,43.04"
     stroke="#dc36df"
     stroke-width="2"
     id="path15" />
  <path
     d="m 1366,1164.84 c -50.59,12.26 -101.19,24.53 -151.78,11.73 -50.59,-12.79 -101.18,-50.63 -151.78,-62.6 -50.59,-11.96 -101.181,1.96 -151.773,7.83 -50.594,5.87 -101.186,3.69 -151.778,3.91 -50.592,0.22 -101.186,2.84 -151.778,0 -50.592,-2.84 -101.184,-11.12 -151.778,0 -50.592,11.13 -101.184,41.67 -151.776,50.86 -50.595,9.2 -101.187,-2.96 -151.779,-11.73 C 101.186,1156.06 50.5919,1150.67 0,1145.28 V 934 c 50.5919,0 101.186,0 151.778,0 50.592,0 101.184,0 151.779,0 50.592,0 101.184,0 151.776,0 50.594,0 101.186,0 151.778,0 50.592,0 101.186,0 151.778,0 50.592,0 101.184,0 151.778,0 50.592,0 101.183,0 151.773,0 50.6,0 101.19,0 151.78,0 50.59,0 101.19,0 151.78,0 z"
     fill="#353566"
     id="path16" />
  <path
     d="m 1366,1164.84 c -50.59,12.26 -101.19,24.53 -151.78,11.73 -50.59,-12.79 -101.18,-50.63 -151.78,-62.6 -50.59,-11.96 -101.181,1.96 -151.773,7.83 -50.594,5.87 -101.186,3.69 -151.778,3.91 -50.592,0.22 -101.186,2.84 -151.778,0 -50.592,-2.84 -101.184,-11.12 -151.778,0 -50.592,11.13 -101.184,41.67 -151.776,50.86 -50.595,9.2 -101.187,-2.96 -151.779,-11.73 -50.592,-8.78 -101.1861,-14.17 -151.7780462532,-19.56"
     stroke="#dc36df"
     stroke-width="2"
     id="path17" />
  <path
     d="m 1366,996.412 c -50.59,31.878 -101.19,63.758 -151.78,50.868 -50.59,-12.9 -101.18,-70.579 -151.78,-82.167 -50.59,-11.591 -101.181,22.904 -151.773,43.037 -50.594,20.13 -101.186,25.9 -151.778,23.47 -50.592,-2.42 -101.186,-13.04 -151.778,-23.47 -50.592,-10.429 -101.184,-20.663 -151.778,-11.738 -50.592,8.928 -101.185,37.018 -151.776,50.868 -50.595,13.84 -101.187,13.45 -151.779,11.73 C 101.186,1057.29 50.592,1054.24 0,1051.19 V 836 c 50.592,0 101.186,0 151.778,0 50.592,0 101.184,0 151.779,0 50.591,0 101.184,0 151.776,0 50.594,0 101.186,0 151.778,0 50.592,0 101.186,0 151.778,0 50.592,0 101.184,0 151.778,0 50.592,0 101.183,0 151.773,0 50.6,0 101.19,0 151.78,0 50.59,0 101.19,0 151.78,0 z"
     fill="#c5b6f0"
     id="path18" />
  <path
     d="m 1366,996.412 c -50.59,31.878 -101.19,63.758 -151.78,50.868 -50.59,-12.9 -101.18,-70.579 -151.78,-82.167 -50.59,-11.591 -101.181,22.904 -151.773,43.037 -50.594,20.13 -101.186,25.9 -151.778,23.47 -50.592,-2.42 -101.186,-13.04 -151.778,-23.47 -50.592,-10.429 -101.184,-20.663 -151.778,-11.738 -50.592,8.928 -101.184,37.018 -151.776,50.868 -50.595,13.84 -101.187,13.45 -151.779,11.73 -50.592,-1.72 -101.1861,-4.77 -151.7780462532,-7.82"
     stroke="#dc36df"
     stroke-width="2"
     id="path19" />
  <defs
     id="defs24">
    <filter
       id="filter0_f_105_73"
       x="-477"
       y="329"
       width="2255"
       height="1207"
       filterUnits="userSpaceOnUse"
       color-interpolation-filters="sRGB">
      <feFlood
         flood-opacity="0"
         result="BackgroundImageFix"
         id="feFlood23" />
      <feBlend
         mode="normal"
         in="SourceGraphic"
         in2="BackgroundImageFix"
         result="shape"
         id="feBlend23" />
      <feGaussianBlur
         stdDeviation="72"
         result="effect1_foregroundBlur_105_73"
         id="feGaussianBlur23" />
    </filter>
    <filter
       id="filter1_f_105_73"
       x="-420"
       y="0"
       width="2198"
       height="1180"
       filterUnits="userSpaceOnUse"
       color-interpolation-filters="sRGB">
      <feFlood
         flood-opacity="0"
         result="BackgroundImageFix"
         id="feFlood24" />
      <feBlend
         mode="normal"
         in="SourceGraphic"
         in2="BackgroundImageFix"
         result="shape"
         id="feBlend24" />
      <feGaussianBlur
         stdDeviation="72"
         result="effect1_foregroundBlur_105_73"
         id="feGaussianBlur24" />
    </filter>
  </defs>
  <rect
     style="fill:#c5b6f0;fill-opacity:1;fill-rule:nonzero;stroke-width:1.00157"
     id="rect1"
     width="1366"
     height="98.03183"
     x="0"
     y="473"
     rx="18" />
</svg>
