<svg width="1366" height="381" viewBox="0 0 1366 381" fill="none" xmlns="http://www.w3.org/2000/svg">
<path d="M-17 47.2544C33.7772 61.0289 84.5567 74.801 135.334 88.3844C186.111 101.968 236.888 115.358 287.668 106.664C338.445 97.9718 389.222 67.1936 439.999 65.5336C490.779 63.876 541.556 91.3366 592.333 92.9536C643.11 94.573 693.89 70.3488 744.667 47.2544C795.444 24.16 846.221 2.19529 897.001 15.2652C947.778 28.3327 998.555 76.4347 1049.33 74.6744C1100.11 72.9141 1150.89 21.289 1201.67 6.12438C1252.44 -9.04022 1303.22 12.2509 1354 33.5444" stroke="#783CC8" stroke-width="2"/>
<path d="M-17 92.9537C33.7772 100.408 84.5567 107.863 135.334 106.664C186.111 105.467 236.888 95.6145 287.668 111.235C338.445 126.854 389.222 167.943 439.999 152.365C490.779 136.787 541.556 64.5425 592.333 70.1053C643.11 75.6657 693.89 159.032 744.667 161.504C795.444 163.978 846.221 85.5613 897.001 70.1053C947.778 54.6469 998.555 102.152 1049.33 111.235C1100.11 120.316 1150.89 90.9808 1201.67 92.9537C1252.44 94.929 1303.22 128.218 1354 161.504" stroke="#783CC8" stroke-width="2"/>
<path d="M0 205.881C50.7772 194.244 101.557 182.607 152.334 173.891C203.111 165.176 253.888 159.379 304.668 178.461C355.445 197.545 406.222 241.507 456.999 233.301C507.779 225.094 558.556 164.717 609.333 137.331C660.11 109.946 710.89 115.55 761.667 123.621C812.444 131.691 863.221 142.227 914.001 160.181C964.778 178.136 1015.56 203.509 1066.33 215.021C1117.11 226.534 1167.89 224.186 1218.67 215.021C1269.44 205.857 1320.22 189.873 1371 173.891" stroke="#783CC8" stroke-width="2"/>
</svg>
